<svg width="17" height="17" viewBox="0 0 17 17" fill="none" xmlns="http://www.w3.org/2000/svg">
<g clip-path="url(#clip0)">
<path d="M7.39402 16.8696H0.727356V15.5363H7.39402V16.8696ZM6.06069 12.8696H0.727356V14.203H6.06069V12.8696ZM4.72736 10.203H0.727356V11.5363H4.72736V10.203ZM8.72736 0.869629C6.60633 0.871923 4.57283 1.71551 3.07304 3.21531C1.57324 4.7151 0.72965 6.7486 0.727356 8.86963H2.06069C2.06069 7.55109 2.45168 6.26216 3.18423 5.16583C3.91677 4.0695 4.95796 3.21502 6.17613 2.71043C7.39431 2.20585 8.73475 2.07383 10.028 2.33106C11.3212 2.5883 12.5091 3.22323 13.4414 4.15558C14.3738 5.08793 15.0087 6.27582 15.2659 7.56903C15.5232 8.86223 15.3911 10.2027 14.8866 11.4209C14.382 12.639 13.5275 13.6802 12.4312 14.4128C11.3348 15.1453 10.0459 15.5363 8.72736 15.5363V16.8696C10.8491 16.8696 12.8839 16.0268 14.3842 14.5265C15.8845 13.0262 16.7274 10.9914 16.7274 8.86963C16.7274 6.7479 15.8845 4.71307 14.3842 3.21277C12.8839 1.71248 10.8491 0.869629 8.72736 0.869629V0.869629ZM8.06069 5.5363V9.14563L10.256 11.341L11.1987 10.3983L9.39402 8.59363V5.5363H8.06069Z" fill="#3BB77E"/>
</g>
<defs>
<clipPath id="clip0">
<rect width="16" height="16" fill="white" transform="translate(0.727356 0.869629)"/>
</clipPath>
</defs>
</svg>
