<svg xmlns="http://www.w3.org/2000/svg" enable-background="new 0 0 124 124" viewBox="0 0 124 124"><path fill="#333033" d="M64.9,19.3C36.1,16.7,12,40.7,14.6,69.6c2,22.1,19.8,39.9,41.9,41.9
			c28.8,2.6,52.9-21.5,50.3-50.3C104.8,39,87,21.2,64.9,19.3z M91.1,42.5c4.4,5.9,7.1,13,7.6,20.8c0,0.5-0.4,0.8-0.9,0.7
			c-8.5-1.7-16.5-2-24-0.9c-0.3,0-0.6-0.1-0.7-0.4c-0.9-2.1-1.7-4-2.6-5.9c-0.2-0.4,0-0.8,0.3-0.9c7-3.2,13.6-7.5,19.3-13.3
			C90.4,42.2,90.9,42.2,91.1,42.5z M84.3,36.6c-5.1,5.2-10.9,9.1-17.4,12c-0.3,0.2-0.7,0-0.9-0.3C61.5,40,57,33.5,53.6,29
			c-0.3-0.4-0.1-1,0.4-1.1c2.2-0.4,4.4-0.6,6.7-0.6c8.9,0,17.1,3.1,23.6,8.2C84.6,35.8,84.6,36.3,84.3,36.6z M44.9,31.3
			c3.2,3.9,8.2,10.5,13.3,19.6c0.2,0.4,0,0.9-0.4,1c-9.8,2.8-20.8,4.1-33.1,4.6c-0.5,0-0.8-0.4-0.7-0.9C26.8,44.9,34.2,36,44,31.2
			C44.3,31,44.7,31.1,44.9,31.3z M23.4,64.8c13.2-0.4,26.4-1.7,38.5-5.5c0.3-0.1,0.7,0,0.8,0.4c0.7,1.5,1.4,3.1,2.2,4.7
			c0.2,0.4,0,0.8-0.4,1c-12,3.9-22.7,11.8-32.3,23.9c-0.3,0.3-0.8,0.4-1.1,0.1c-5.4-5.8-8.2-14.5-8.4-23.7
			C22.7,65.1,23,64.8,23.4,64.8z M38,95c8.8-11.3,18.5-18.6,29.5-22c0.4-0.1,0.8,0.1,0.9,0.4c2.8,7.9,5.2,16.8,6.7,26.5
			c0.1,0.3-0.1,0.7-0.4,0.8c-4.3,1.7-9.1,2.7-14,2.7c-8.4,0-16.2-2.8-22.5-7.4C37.8,95.7,37.8,95.3,38,95z M82.7,95.1
			C81.1,86.7,79,79,76.6,71.9c-0.1-0.4,0.1-0.9,0.6-0.9c6.3-0.7,13-0.2,20.2,1.4c0.4,0.1,0.6,0.5,0.6,0.9c-1.9,9-7,16.9-14.1,22.3
			C83.4,95.9,82.7,95.6,82.7,95.1z"/></svg>