<svg width="85" height="85" viewBox="0 0 85 85" fill="none" xmlns="http://www.w3.org/2000/svg">
<path d="M32.5391 46.0859V53.9219H26.2969V46.0859C26.2969 41.9688 22.9766 38.5156 18.8594 38.5156C14.7422 38.5156 11.4219 41.9688 11.4219 46.0859V48.0781C11.4219 49.8047 10.0938 51.1328 8.36719 51.1328C7.57031 51.1328 6.77344 50.7344 6.10937 50.2031C5.57812 49.6719 5.17969 48.875 5.17969 48.0781V46.0859C5.3125 38.5156 11.4219 32.4062 18.8594 32.4062C26.4297 32.4062 32.5391 38.5156 32.5391 46.0859Z" fill="#00ED89"/>
<path d="M33.0703 56.7109H4.64844C2.39062 56.7109 0.53125 58.5703 0.53125 60.8281V80.6172C0.53125 82.875 2.39062 84.7344 4.64844 84.7344H33.0703C35.3281 84.7344 37.1875 82.875 37.1875 80.6172V60.8281C37.1875 58.5703 35.3281 56.7109 33.0703 56.7109ZM22.0469 75.5703C22.1797 76.2344 21.7813 76.7656 21.1172 76.7656H16.8672C16.2031 76.7656 15.8047 76.2344 15.9375 75.5703L16.6016 72.5156C16.7344 72.25 16.6016 71.8516 16.3359 71.5859C15.4063 70.7891 14.875 69.4609 15.0078 68C15.2734 66.2734 16.7344 64.8125 18.4609 64.6797C20.9844 64.2812 23.1094 66.2734 23.1094 68.6641C23.1094 69.8594 22.5781 70.9219 21.7813 71.7187C21.5156 71.9844 21.3828 72.25 21.5156 72.6484L22.0469 75.5703Z" fill="#00BAA0"/>
<path d="M75.1699 42.6328C75.1699 54.3203 72.5137 65.4765 67.0684 75.8359C66.8027 76.3672 66.5371 76.7656 66.2715 77.2968C65.4746 78.625 64.2793 79.4218 62.8184 78.4922C61.3574 77.5625 61.3574 76.2343 62.0215 74.9062C62.4199 73.9765 62.9512 73.1797 63.3496 72.25C67.7324 63.3515 70.1231 53.9218 70.2559 45.9531C70.2559 29.2187 60.2949 17.9296 46.7481 15.6718C28.2871 12.6171 20.4512 27.4921 19.9199 28.289L18.9902 29.75C16.7324 29.75 14.6074 30.1484 12.748 31.0781L14.3418 27.625C18.5918 19.2578 26.4277 13.0156 35.8574 11.0234C55.9121 6.64058 75.0371 21.914 75.1699 42.6328Z" fill="#FDC040"/>
<path d="M65.0762 44.7578C64.5449 58.3046 60.1621 70.3906 51.7949 81.1484C51.2637 81.9453 50.5996 82.6093 49.9355 83.4062C48.873 84.7343 47.5449 85.3984 46.084 84.0703C44.623 82.7422 45.0215 81.414 46.2168 80.0859C49.5371 76.1015 52.459 71.8515 54.7168 67.2031C58.3027 59.7656 60.1621 51.7968 60.1621 43.5625C60.2949 33.4687 52.7246 25.5 43.0293 25.5C42.6309 25.5 42.2324 25.5 41.7012 25.5C36.3887 25.7656 31.6074 28.8203 28.6855 33.2031C27.3574 32.1406 25.8965 31.3437 24.1699 30.8125L24.3027 30.5468C25.7637 28.289 27.4902 26.164 29.748 24.5703C33.5996 21.7812 38.248 20.3203 43.4277 20.4531C56.3105 20.7187 65.6074 31.2109 65.0762 44.7578Z" fill="#FDC040"/>
<path d="M55.248 44.4922C54.584 56.9766 50.334 67.6016 42.6309 76.6328L39.9746 79.4219V71.7187L42.6309 68.2656C47.4121 61.0937 49.9355 52.7266 50.2012 43.4297C50.334 38.5156 47.2793 35.1953 43.0293 35.1953H42.8965C39.5762 35.1953 36.7871 37.7187 35.9902 40.9062L35.0605 44.8906C34.7949 41.8359 33.8652 39.0469 32.2715 36.6562L32.4043 36.3906C33.998 33.4687 36.6543 31.2109 39.8418 30.5469H39.9746C45.2871 29.2187 50.7324 31.6094 53.5215 36.3906C55.1152 38.9141 55.5137 41.5703 55.248 44.4922Z" fill="#FDC040"/>
<path d="M45.4199 43.6953C45.0215 49.0078 44.0918 53.789 42.3652 58.3046L39.8418 62.6874V60.6953C39.8418 58.7031 39.0449 56.9765 37.7168 55.7812L38.6465 53.1249C39.4434 50.3359 39.9746 47.2812 40.1074 44.2265C40.1074 44.0937 40.1074 43.9609 40.1074 43.9609C40.1074 42.1015 40.373 40.2421 42.7637 40.3749C45.2871 40.3749 45.4199 42.2343 45.4199 43.6953Z" fill="#FDC040"/>
<path d="M82.6075 45.0234C80.7481 45.0234 80.2168 43.5625 79.9512 41.9687C79.6856 39.8437 79.6856 37.7187 79.2871 35.5937C75.834 17.2656 59.0996 4.24996 40.6387 5.44527C29.084 6.10933 18.8574 12.0859 12.4824 20.9843C11.0215 22.9765 9.8262 25.1015 8.89651 27.3593C7.83401 29.8828 7.03713 32.539 6.50588 35.1953C4.11526 38.1171 2.65432 41.9687 2.65432 46.0859V48.0781C2.65432 48.4765 2.65432 48.875 2.78713 49.2734C2.52151 49.2734 2.3887 49.2734 2.12307 49.2734C0.263697 49.0078 -0.134741 47.414 0.130884 45.8203C0.529322 42.8984 0.529322 41.8359 0.662134 40.7734C1.06057 31.7421 4.11526 23.5078 9.8262 16.3359C20.7168 2.78902 38.1153 -2.92192 54.7168 2.12496C71.9825 7.43746 81.8106 19.6562 84.7324 37.3203C84.8653 38.3828 84.8653 41.4375 84.8653 41.8359C85.1309 43.6953 84.5996 45.0234 82.6075 45.0234Z" fill="#FDC040"/>
</svg>
