<svg width="85" height="95" viewBox="0 0 85 95" fill="none" xmlns="http://www.w3.org/2000/svg">
<g clip-path="url(#clip0_495_8100)">
<path d="M81.711 23.112V33.6906C81.711 46.7927 76.5063 59.3595 67.2414 68.6244L44.1312 91.7327H42.418V3.56769C42.444 3.54725 42.4719 3.52496 42.4979 3.50452L46.4298 6.36425C55.7263 13.1262 66.0782 18.3012 77.0637 21.6812L81.711 23.112Z" fill="#0F8F94"/>
<path d="M42.4185 3.56769V91.7327H40.8651L17.7567 68.6244C8.49187 59.3595 3.28711 46.7926 3.28711 33.6906V23.112L6.04279 22.3241C12.6821 20.4269 19.1002 17.8794 25.2062 14.7279C31.2824 11.5894 37.0484 7.85637 42.4185 3.56769Z" fill="#00BAA0"/>
<path d="M6.80852 25.0037C19.773 21.3003 31.7416 15.2835 42.4187 7.10568V0L40.7574 1.3286C30.2067 9.77031 18.2679 15.932 5.27552 19.6447L0.5 21.0086V33.6906C0.5 40.5789 1.83603 47.2999 4.47279 53.6642C7.10768 60.0285 10.9151 65.7238 15.7854 70.5959L39.7113 94.52H42.4187V88.9455H42.0191L19.7284 66.6529C10.9225 57.8488 6.07454 46.1423 6.07454 33.6906V25.2136L6.80852 25.0037Z" fill="#0ED581"/>
<path d="M84.4983 21.0532V33.6906C84.4983 40.5789 83.1604 47.2999 80.5255 53.6642C77.8888 60.0285 74.0832 65.7238 69.2111 70.5959L45.287 94.52H42.418V88.9455H42.9773L65.2699 66.6529C74.0739 57.8488 78.9238 46.1423 78.9238 33.6906V25.1709L76.2443 24.3459C64.9391 20.8674 54.3568 15.5753 44.7909 8.61823L42.561 6.9979C42.5127 7.03507 42.4663 7.07037 42.418 7.10568V0L48.0687 4.11029C57.1366 10.705 67.1671 15.7202 77.8832 19.0185L84.4983 21.0532Z" fill="#00BAA0"/>
<path d="M63.9636 25.7674V39.7037H50.0273V34.1292H54.9069C52.9558 32.048 50.4863 30.5801 47.7157 29.9018C45.956 29.4726 44.1666 29.3834 42.4199 29.6268V24.0114C44.6107 23.7958 46.8405 23.9501 49.0388 24.4871C52.6027 25.3586 55.8025 27.1629 58.3891 29.7104V25.7674H63.9636Z" fill="#E6AB2F"/>
<path d="M42.4191 24.0114V29.6268C40.4662 29.8963 38.5671 30.5801 36.8279 31.6597C33.3085 33.843 30.8538 37.3513 29.9155 41.5359C29.6516 42.7158 29.5159 43.9237 29.5159 45.124L23.9414 45.1185C23.9414 43.5111 24.1216 41.8945 24.4766 40.3169C25.7438 34.6588 29.0867 29.9018 33.8882 26.9232C36.5287 25.2843 39.4349 24.305 42.4191 24.0114Z" fill="#FDC040"/>
<path d="M64.0398 43.5892C64.038 45.1965 63.8596 46.8131 63.5047 48.3926C62.2374 54.0489 58.8945 58.8058 54.0911 61.7845C50.8914 63.7708 47.2976 64.791 43.65 64.791C43.2412 64.791 42.8306 64.778 42.4199 64.752V59.1607C45.4543 59.4246 48.4906 58.6999 51.1534 57.048C54.6728 54.8646 57.1274 51.3582 58.0658 47.1736C58.3297 45.9918 58.4653 44.784 58.4653 43.5854L64.0398 43.5892Z" fill="#E6AB2F"/>
<path d="M42.4188 59.1607V64.752C41.2575 64.6795 40.0961 64.503 38.9422 64.2205C35.3745 63.3491 32.1728 61.5429 29.5863 58.9935V63.8601H24.0117V49.9237H37.9481V55.4982H34.0124C35.7944 57.0944 37.9221 58.2335 40.2652 58.8058C40.9788 58.9805 41.6997 59.0994 42.4188 59.1607Z" fill="#FDC040"/>
</g>
<defs>
<clipPath id="clip0_495_8100">
<rect width="85" height="94.52" fill="white"/>
</clipPath>
</defs>
</svg>
